<mxfile host="app.diagrams.net" modified="2023-06-18T20:55:54.771Z" agent="Mozilla/5.0 (Windows NT 10.0; Win64; x64) AppleWebKit/537.36 (KHTML, like Gecko) Chrome/114.0.0.0 Safari/537.36" etag="1EDjTmqzZ9jIwtKkUUgg" version="21.5.0" type="github">
  <diagram name="Page-1" id="t3qog6aXEDze5Qjvh7f7">
    <mxGraphModel dx="1050" dy="579" grid="1" gridSize="10" guides="1" tooltips="1" connect="1" arrows="1" fold="1" page="1" pageScale="1" pageWidth="850" pageHeight="1100" background="none" math="0" shadow="0">
      <root>
        <mxCell id="0" />
        <mxCell id="1" parent="0" />
        <mxCell id="dmrnsj8Lywu8BeSzJcbg-1" style="edgeStyle=orthogonalEdgeStyle;rounded=0;orthogonalLoop=1;jettySize=auto;html=1;exitX=0.5;exitY=1;exitDx=0;exitDy=0;entryX=0;entryY=0.5;entryDx=0;entryDy=0;" edge="1" parent="1" source="qa3g5I5-5r9ye9UCrEEn-1" target="qa3g5I5-5r9ye9UCrEEn-2">
          <mxGeometry relative="1" as="geometry">
            <mxPoint x="285" y="590" as="targetPoint" />
            <Array as="points">
              <mxPoint x="185" y="750" />
            </Array>
          </mxGeometry>
        </mxCell>
        <mxCell id="dmrnsj8Lywu8BeSzJcbg-9" value="confirmed U/P Data" style="edgeLabel;html=1;align=center;verticalAlign=middle;resizable=0;points=[];" vertex="1" connectable="0" parent="dmrnsj8Lywu8BeSzJcbg-1">
          <mxGeometry x="-0.275" relative="1" as="geometry">
            <mxPoint as="offset" />
          </mxGeometry>
        </mxCell>
        <mxCell id="dmrnsj8Lywu8BeSzJcbg-11" style="edgeStyle=orthogonalEdgeStyle;rounded=0;orthogonalLoop=1;jettySize=auto;html=1;exitX=0.5;exitY=0;exitDx=0;exitDy=0;entryX=0.5;entryY=1;entryDx=0;entryDy=0;" edge="1" parent="1" source="qa3g5I5-5r9ye9UCrEEn-1" target="dmrnsj8Lywu8BeSzJcbg-13">
          <mxGeometry relative="1" as="geometry">
            <mxPoint x="255" y="410" as="targetPoint" />
          </mxGeometry>
        </mxCell>
        <mxCell id="dmrnsj8Lywu8BeSzJcbg-12" value="unconfirmed&lt;br&gt;&amp;nbsp;U/P Data" style="edgeLabel;html=1;align=center;verticalAlign=middle;resizable=0;points=[];" vertex="1" connectable="0" parent="dmrnsj8Lywu8BeSzJcbg-11">
          <mxGeometry x="0.1351" relative="1" as="geometry">
            <mxPoint y="-1" as="offset" />
          </mxGeometry>
        </mxCell>
        <mxCell id="qa3g5I5-5r9ye9UCrEEn-1" value="check" style="rounded=0;whiteSpace=wrap;html=1;" parent="1" vertex="1">
          <mxGeometry x="125" y="570" width="120" height="40" as="geometry" />
        </mxCell>
        <mxCell id="dmrnsj8Lywu8BeSzJcbg-3" style="edgeStyle=orthogonalEdgeStyle;rounded=0;orthogonalLoop=1;jettySize=auto;html=1;exitX=1;exitY=0.5;exitDx=0;exitDy=0;entryX=0.75;entryY=1;entryDx=0;entryDy=0;" edge="1" parent="1" source="qa3g5I5-5r9ye9UCrEEn-2" target="qa3g5I5-5r9ye9UCrEEn-3">
          <mxGeometry relative="1" as="geometry" />
        </mxCell>
        <mxCell id="dmrnsj8Lywu8BeSzJcbg-4" value="playlist data" style="edgeLabel;html=1;align=center;verticalAlign=middle;resizable=0;points=[];" vertex="1" connectable="0" parent="dmrnsj8Lywu8BeSzJcbg-3">
          <mxGeometry x="0.021" y="-1" relative="1" as="geometry">
            <mxPoint as="offset" />
          </mxGeometry>
        </mxCell>
        <mxCell id="qa3g5I5-5r9ye9UCrEEn-2" value="sql database" style="rounded=0;whiteSpace=wrap;html=1;" parent="1" vertex="1">
          <mxGeometry x="325" y="730" width="120" height="40" as="geometry" />
        </mxCell>
        <mxCell id="dmrnsj8Lywu8BeSzJcbg-5" style="edgeStyle=orthogonalEdgeStyle;rounded=0;orthogonalLoop=1;jettySize=auto;html=1;exitX=1;exitY=0.5;exitDx=0;exitDy=0;entryX=0.5;entryY=1;entryDx=0;entryDy=0;" edge="1" parent="1" source="qa3g5I5-5r9ye9UCrEEn-3" target="qa3g5I5-5r9ye9UCrEEn-6">
          <mxGeometry relative="1" as="geometry">
            <Array as="points">
              <mxPoint x="665" y="590" />
            </Array>
          </mxGeometry>
        </mxCell>
        <mxCell id="dmrnsj8Lywu8BeSzJcbg-6" value="playlist data" style="edgeLabel;html=1;align=center;verticalAlign=middle;resizable=0;points=[];" vertex="1" connectable="0" parent="dmrnsj8Lywu8BeSzJcbg-5">
          <mxGeometry x="-0.19" y="4" relative="1" as="geometry">
            <mxPoint as="offset" />
          </mxGeometry>
        </mxCell>
        <mxCell id="dmrnsj8Lywu8BeSzJcbg-16" style="edgeStyle=orthogonalEdgeStyle;rounded=0;orthogonalLoop=1;jettySize=auto;html=1;exitX=0;exitY=0.5;exitDx=0;exitDy=0;entryX=1;entryY=0.5;entryDx=0;entryDy=0;" edge="1" parent="1" source="qa3g5I5-5r9ye9UCrEEn-3" target="qa3g5I5-5r9ye9UCrEEn-1">
          <mxGeometry relative="1" as="geometry">
            <Array as="points">
              <mxPoint x="305" y="590" />
              <mxPoint x="305" y="590" />
            </Array>
          </mxGeometry>
        </mxCell>
        <mxCell id="dmrnsj8Lywu8BeSzJcbg-17" value="U/P Data" style="edgeLabel;html=1;align=center;verticalAlign=middle;resizable=0;points=[];" vertex="1" connectable="0" parent="dmrnsj8Lywu8BeSzJcbg-16">
          <mxGeometry x="0.324" y="-1" relative="1" as="geometry">
            <mxPoint x="13" y="1" as="offset" />
          </mxGeometry>
        </mxCell>
        <mxCell id="dmrnsj8Lywu8BeSzJcbg-21" style="edgeStyle=orthogonalEdgeStyle;rounded=0;orthogonalLoop=1;jettySize=auto;html=1;exitX=0.25;exitY=1;exitDx=0;exitDy=0;entryX=0.25;entryY=0;entryDx=0;entryDy=0;" edge="1" parent="1" source="qa3g5I5-5r9ye9UCrEEn-3" target="qa3g5I5-5r9ye9UCrEEn-2">
          <mxGeometry relative="1" as="geometry" />
        </mxCell>
        <mxCell id="dmrnsj8Lywu8BeSzJcbg-22" value="new U/P Data" style="edgeLabel;html=1;align=center;verticalAlign=middle;resizable=0;points=[];" vertex="1" connectable="0" parent="dmrnsj8Lywu8BeSzJcbg-21">
          <mxGeometry x="-0.28" y="2" relative="1" as="geometry">
            <mxPoint as="offset" />
          </mxGeometry>
        </mxCell>
        <mxCell id="qa3g5I5-5r9ye9UCrEEn-3" value="spring" style="rounded=0;whiteSpace=wrap;html=1;" parent="1" vertex="1">
          <mxGeometry x="325" y="570" width="120" height="40" as="geometry" />
        </mxCell>
        <mxCell id="dmrnsj8Lywu8BeSzJcbg-7" style="edgeStyle=orthogonalEdgeStyle;rounded=0;orthogonalLoop=1;jettySize=auto;html=1;exitX=0;exitY=0.5;exitDx=0;exitDy=0;entryX=0.75;entryY=0;entryDx=0;entryDy=0;" edge="1" parent="1" source="qa3g5I5-5r9ye9UCrEEn-6" target="qa3g5I5-5r9ye9UCrEEn-3">
          <mxGeometry relative="1" as="geometry" />
        </mxCell>
        <mxCell id="dmrnsj8Lywu8BeSzJcbg-8" value="U/P Data" style="edgeLabel;html=1;align=center;verticalAlign=middle;resizable=0;points=[];" vertex="1" connectable="0" parent="dmrnsj8Lywu8BeSzJcbg-7">
          <mxGeometry x="0.0152" y="-1" relative="1" as="geometry">
            <mxPoint as="offset" />
          </mxGeometry>
        </mxCell>
        <mxCell id="qa3g5I5-5r9ye9UCrEEn-6" value="music webpage" style="rounded=0;whiteSpace=wrap;html=1;" parent="1" vertex="1">
          <mxGeometry x="605" y="370" width="120" height="40" as="geometry" />
        </mxCell>
        <mxCell id="qa3g5I5-5r9ye9UCrEEn-10" style="edgeStyle=orthogonalEdgeStyle;rounded=0;orthogonalLoop=1;jettySize=auto;html=1;exitX=0.5;exitY=1;exitDx=0;exitDy=0;" parent="1" source="qa3g5I5-5r9ye9UCrEEn-1" target="qa3g5I5-5r9ye9UCrEEn-1" edge="1">
          <mxGeometry relative="1" as="geometry" />
        </mxCell>
        <mxCell id="dmrnsj8Lywu8BeSzJcbg-15" style="edgeStyle=orthogonalEdgeStyle;rounded=0;orthogonalLoop=1;jettySize=auto;html=1;exitX=1;exitY=0.5;exitDx=0;exitDy=0;entryX=0.5;entryY=0;entryDx=0;entryDy=0;" edge="1" parent="1" source="dmrnsj8Lywu8BeSzJcbg-13" target="qa3g5I5-5r9ye9UCrEEn-6">
          <mxGeometry relative="1" as="geometry">
            <mxPoint x="475" y="355" as="targetPoint" />
            <Array as="points">
              <mxPoint x="365" y="350" />
              <mxPoint x="665" y="350" />
            </Array>
          </mxGeometry>
        </mxCell>
        <mxCell id="dmrnsj8Lywu8BeSzJcbg-23" value="redirect" style="edgeLabel;html=1;align=center;verticalAlign=middle;resizable=0;points=[];" vertex="1" connectable="0" parent="dmrnsj8Lywu8BeSzJcbg-15">
          <mxGeometry x="0.0425" y="-3" relative="1" as="geometry">
            <mxPoint as="offset" />
          </mxGeometry>
        </mxCell>
        <mxCell id="dmrnsj8Lywu8BeSzJcbg-19" style="edgeStyle=orthogonalEdgeStyle;rounded=0;orthogonalLoop=1;jettySize=auto;html=1;exitX=0.75;exitY=1;exitDx=0;exitDy=0;entryX=0.25;entryY=0;entryDx=0;entryDy=0;" edge="1" parent="1" source="dmrnsj8Lywu8BeSzJcbg-13" target="qa3g5I5-5r9ye9UCrEEn-3">
          <mxGeometry relative="1" as="geometry" />
        </mxCell>
        <mxCell id="dmrnsj8Lywu8BeSzJcbg-20" value="new U/P Data" style="edgeLabel;html=1;align=center;verticalAlign=middle;resizable=0;points=[];" vertex="1" connectable="0" parent="dmrnsj8Lywu8BeSzJcbg-19">
          <mxGeometry x="0.0891" y="2" relative="1" as="geometry">
            <mxPoint x="-2" y="-2" as="offset" />
          </mxGeometry>
        </mxCell>
        <mxCell id="dmrnsj8Lywu8BeSzJcbg-13" value="user/password&lt;br&gt;creation webpage" style="whiteSpace=wrap;html=1;" vertex="1" parent="1">
          <mxGeometry x="245" y="330" width="120" height="40" as="geometry" />
        </mxCell>
      </root>
    </mxGraphModel>
  </diagram>
</mxfile>
